<svg xmlns="http://www.w3.org/2000/svg" xmlns:xlink="http://www.w3.org/1999/xlink" width="500" zoomAndPan="magnify" viewBox="0 0 375 374.999991" height="500" preserveAspectRatio="xMidYMid meet" version="1.0"><defs><g/><clipPath id="id1"><path d="M 152 43 L 221 43 L 221 68 L 152 68 Z M 152 43 " clip-rule="nonzero"/></clipPath><clipPath id="id2"><path d="M 170.230469 29.007812 L 223.574219 59.609375 L 204.914062 92.136719 L 151.566406 61.535156 Z M 170.230469 29.007812 " clip-rule="nonzero"/></clipPath><clipPath id="id3"><path d="M 170.230469 29.007812 L 223.574219 59.609375 L 204.914062 92.136719 L 151.566406 61.535156 Z M 170.230469 29.007812 " clip-rule="nonzero"/></clipPath><clipPath id="id4"><path d="M 149 31 L 224 31 L 224 59 L 149 59 Z M 149 31 " clip-rule="nonzero"/></clipPath><clipPath id="id5"><path d="M 169.15625 15.699219 L 226.695312 49.53125 L 206.171875 84.445312 L 148.628906 50.613281 Z M 169.15625 15.699219 " clip-rule="nonzero"/></clipPath><clipPath id="id6"><path d="M 169.15625 15.699219 L 226.695312 49.53125 L 206.171875 84.445312 L 148.628906 50.613281 Z M 169.15625 15.699219 " clip-rule="nonzero"/></clipPath></defs><g fill="#000000" fill-opacity="1"><g transform="translate(58.643439, 254.234338)"><g><path d="M 0 -8.929688 C 0 -11.089844 0.433594 -15.335938 0.433594 -17.207031 C 0.433594 -28.585938 -6.191406 -35.351562 -18 -35.351562 C -29.808594 -35.351562 -36.433594 -28.585938 -36.433594 -17.207031 C -36.433594 -15.335938 -36 -11.089844 -36 -8.929688 C -36 -7.488281 -36.433594 -5.328125 -36.433594 -3.601562 C -36.433594 -1.945312 -36.070312 -0.71875 -34.632812 -0.71875 C -32.542969 -0.71875 -33.480469 -3.167969 -26.710938 -3.167969 L -9.289062 -3.167969 C -2.519531 -3.167969 -3.457031 -0.71875 -1.367188 -0.71875 C 0.0703125 -0.71875 0.433594 -1.945312 0.433594 -3.601562 C 0.433594 -5.328125 0 -7.488281 0 -8.929688 Z M -5.257812 -14.832031 L -30.382812 -14.832031 C -31.535156 -14.832031 -31.96875 -15.550781 -31.96875 -16.632812 C -31.96875 -21.960938 -23.113281 -23.113281 -18 -23.113281 C -12.601562 -23.113281 -3.671875 -22.105469 -3.671875 -16.632812 C -3.671875 -15.550781 -4.105469 -14.832031 -5.257812 -14.832031 Z M -5.257812 -14.832031 "/></g></g></g><g fill="#000000" fill-opacity="1"><g transform="translate(58.643439, 229.53835)"><g><path d="M -34.558594 -0.71875 C -32.472656 -0.71875 -33.191406 -3.167969 -26.710938 -3.167969 L -9.289062 -3.167969 C -2.519531 -3.238281 -3.457031 -0.792969 -1.367188 -0.792969 C 0.0703125 -0.792969 0.433594 -2.015625 0.433594 -3.671875 C 0.433594 -5.398438 0 -7.558594 0 -9 C 0 -13.609375 0.0703125 -19.585938 0.433594 -28.152344 C 0.574219 -31.320312 -2.304688 -31.320312 -6.121094 -32.398438 C -12.601562 -34.199219 -14.832031 -34.703125 -14.832031 -32.398438 C -14.832031 -28.726562 -4.320312 -28.367188 -3.527344 -16.558594 C -3.457031 -15.480469 -4.175781 -14.761719 -5.257812 -14.761719 L -14.257812 -14.761719 C -15.40625 -14.761719 -16.054688 -15.480469 -15.910156 -16.558594 C -15.046875 -23.039062 -11.734375 -21.742188 -11.734375 -24.480469 C -11.734375 -27.433594 -15.910156 -26.207031 -18.070312 -26.207031 C -20.230469 -26.207031 -24.40625 -27.433594 -24.40625 -24.480469 C -24.40625 -21.742188 -20.953125 -23.039062 -20.089844 -16.558594 C -19.945312 -15.480469 -20.59375 -14.761719 -21.742188 -14.761719 L -30.457031 -14.761719 C -31.535156 -14.761719 -32.257812 -15.480469 -32.183594 -16.558594 C -31.464844 -27.648438 -23.832031 -27.863281 -23.832031 -31.03125 C -23.832031 -34.199219 -28.367188 -32.113281 -33.550781 -29.953125 C -36.359375 -28.800781 -36.359375 -27.648438 -36.433594 -24.480469 C -36.503906 -21.457031 -36 -16.992188 -36 -10.800781 C -36 -9.792969 -36 -8.785156 -36 -7.632812 C -36 -6.191406 -36.433594 -4.390625 -36.433594 -2.953125 C -36.433594 -1.65625 -36.070312 -0.71875 -34.558594 -0.71875 Z M -34.558594 -0.71875 "/></g></g></g><g fill="#000000" fill-opacity="1"><g transform="translate(58.643439, 207.002366)"><g><path d="M -34.34375 -0.359375 C -32.398438 -0.359375 -31.96875 -2.449219 -30.601562 -3.816406 C -27.503906 -6.910156 -18 -11.375 -13.609375 -13.390625 L -9.289062 -13.535156 C -2.519531 -13.535156 -3.457031 -11.089844 -1.367188 -11.089844 C 0.0703125 -11.089844 0.433594 -12.3125 0.433594 -13.96875 C 0.433594 -15.695312 0 -17.855469 0 -19.296875 C 0 -20.734375 0.433594 -22.894531 0.433594 -24.625 C 0.433594 -26.28125 0.0703125 -27.503906 -1.367188 -27.503906 C -3.457031 -27.503906 -2.519531 -25.054688 -9.289062 -25.054688 L -13.609375 -25.054688 C -18 -27 -27.070312 -31.105469 -30.816406 -34.558594 C -32.183594 -35.785156 -32.976562 -38.015625 -34.703125 -38.015625 C -36.070312 -38.015625 -36.433594 -37.007812 -36.433594 -35.785156 C -36.433594 -34.34375 -36 -32.617188 -36 -31.464844 C -36 -30.023438 -36.359375 -28.441406 -36.359375 -27.144531 C -36.359375 -25.921875 -36 -25.054688 -34.558594 -25.054688 C -32.472656 -25.054688 -32.832031 -28.441406 -30.167969 -27.574219 C -25.703125 -25.992188 -22.390625 -24.40625 -20.59375 -23.617188 C -19.585938 -23.183594 -19.585938 -22.824219 -20.59375 -22.390625 C -22.390625 -21.601562 -24.769531 -20.519531 -29.230469 -18.9375 C -31.96875 -18.144531 -32.257812 -21.167969 -34.34375 -21.167969 C -35.855469 -21.167969 -36.433594 -20.304688 -36.433594 -17.929688 C -36.433594 -15.695312 -36 -11.878906 -36 -10.078125 C -36 -8.207031 -36.433594 -5.902344 -36.433594 -3.671875 C -36.433594 -1.222656 -35.855469 -0.359375 -34.34375 -0.359375 Z M -34.34375 -0.359375 "/></g></g></g><g fill="#000000" fill-opacity="1"><g transform="translate(58.643439, 180.722378)"><g><path d="M -34.632812 -0.71875 C -32.542969 -0.71875 -33.480469 -3.167969 -26.710938 -3.167969 L -14.113281 -3.167969 C -3.816406 -3.167969 0.433594 -8.785156 0.433594 -19.152344 C 0.433594 -29.664062 -3.886719 -34.992188 -14.113281 -34.992188 L -26.785156 -34.992188 C -33.550781 -34.992188 -32.617188 -37.441406 -34.703125 -37.441406 C -36.144531 -37.441406 -36.503906 -36.144531 -36.503906 -34.558594 C -36.503906 -32.761719 -36.070312 -30.601562 -36.070312 -29.160156 C -36.070312 -27.71875 -36.503906 -25.558594 -36.503906 -23.832031 C -36.503906 -22.175781 -36.144531 -20.953125 -34.703125 -20.953125 C -32.617188 -20.953125 -33.550781 -23.398438 -26.785156 -23.398438 L -12.671875 -23.398438 C -9.070312 -23.398438 -4.246094 -23.039062 -4.246094 -19.078125 C -4.246094 -15.121094 -9.070312 -14.761719 -12.671875 -14.761719 L -26.785156 -14.761719 C -33.480469 -14.761719 -32.542969 -17.207031 -34.632812 -17.207031 C -36.070312 -17.207031 -36.433594 -15.910156 -36.433594 -14.328125 C -36.433594 -12.527344 -36 -10.367188 -36 -8.929688 C -36 -7.488281 -36.433594 -5.328125 -36.433594 -3.601562 C -36.433594 -1.945312 -36.070312 -0.71875 -34.632812 -0.71875 Z M -34.632812 -0.71875 "/></g></g></g><g fill="#000000" fill-opacity="1"><g transform="translate(58.643439, 154.658397)"><g><path d="M -7.128906 -1.945312 C -3.023438 -1.871094 0.433594 -0.503906 0.433594 -3.382812 C 0.433594 -5.398438 0 -5.976562 0 -8.425781 C 0 -12.097656 0.433594 -14.039062 0.433594 -17.710938 C 0.433594 -25.128906 -3.167969 -32.472656 -10.078125 -32.472656 C -23.183594 -32.472656 -21.671875 -13.246094 -28.296875 -13.246094 C -30.671875 -13.246094 -32.257812 -14.6875 -32.257812 -17.425781 C -32.257812 -23.039062 -23.832031 -24.839844 -23.832031 -28.152344 C -23.832031 -32.398438 -28.078125 -30.382812 -35.351562 -27.144531 C -36.214844 -26.785156 -36.433594 -26.207031 -36.433594 -25.488281 C -36.433594 -24.550781 -36 -23.257812 -36 -21.601562 C -36 -19.441406 -36.433594 -18.070312 -36.433594 -15.265625 C -36.433594 -6.335938 -31.824219 -1.800781 -25.703125 -1.800781 C -12.382812 -1.800781 -12.527344 -21.960938 -6.910156 -22.03125 C -4.753906 -22.03125 -4.105469 -20.375 -4.105469 -18.070312 C -4.105469 -8.136719 -14.472656 -5.6875 -14.472656 -2.878906 C -14.472656 -0.289062 -11.519531 -1.945312 -7.128906 -1.945312 Z M -7.128906 -1.945312 "/></g></g></g><g fill="#000000" fill-opacity="1"><g transform="translate(96.143436, 218.773404)"><g><path d="M -34.558594 -0.71875 C -32.472656 -0.71875 -33.191406 -3.167969 -26.710938 -3.167969 L -9.289062 -3.167969 C -2.519531 -3.238281 -3.457031 -0.792969 -1.367188 -0.792969 C 0.0703125 -0.792969 0.433594 -2.015625 0.433594 -3.671875 C 0.433594 -5.398438 0 -7.558594 0 -9 C 0 -13.609375 0.0703125 -19.585938 0.433594 -28.152344 C 0.574219 -31.320312 -2.304688 -31.320312 -6.121094 -32.398438 C -12.601562 -34.199219 -14.832031 -34.703125 -14.832031 -32.398438 C -14.832031 -28.726562 -4.320312 -28.367188 -3.527344 -16.558594 C -3.457031 -15.480469 -4.175781 -14.761719 -5.257812 -14.761719 L -14.257812 -14.761719 C -15.40625 -14.761719 -16.054688 -15.480469 -15.910156 -16.558594 C -15.046875 -23.039062 -11.734375 -21.742188 -11.734375 -24.480469 C -11.734375 -27.433594 -15.910156 -26.207031 -18.070312 -26.207031 C -20.230469 -26.207031 -24.40625 -27.433594 -24.40625 -24.480469 C -24.40625 -21.742188 -20.953125 -23.039062 -20.089844 -16.558594 C -19.945312 -15.480469 -20.59375 -14.761719 -21.742188 -14.761719 L -30.457031 -14.761719 C -31.535156 -14.761719 -32.257812 -15.480469 -32.183594 -16.558594 C -31.464844 -27.648438 -23.832031 -27.863281 -23.832031 -31.03125 C -23.832031 -34.199219 -28.367188 -32.113281 -33.550781 -29.953125 C -36.359375 -28.800781 -36.359375 -27.648438 -36.433594 -24.480469 C -36.503906 -21.457031 -36 -16.992188 -36 -10.800781 C -36 -9.792969 -36 -8.785156 -36 -7.632812 C -36 -6.191406 -36.433594 -4.390625 -36.433594 -2.953125 C -36.433594 -1.65625 -36.070312 -0.71875 -34.558594 -0.71875 Z M -34.558594 -0.71875 "/></g></g></g><g fill="#000000" fill-opacity="1"><g transform="translate(96.143436, 196.237421)"><g><path d="M -34.632812 -0.359375 C -32.257812 -0.359375 -32.398438 -2.953125 -27.648438 -6.910156 C -24.695312 -9.359375 -21.097656 -11.808594 -17.855469 -13.824219 C -16.921875 -14.398438 -15.695312 -14.472656 -14.832031 -13.824219 C -12.238281 -11.878906 -9.648438 -10.152344 -7.703125 -8.566406 C -3.238281 -4.246094 -3.742188 -0.792969 -1.367188 -0.792969 C 0.0703125 -0.792969 0.433594 -1.871094 0.433594 -3.3125 C 0.433594 -4.824219 0 -6.769531 0 -8.207031 C 0 -9.648438 0.433594 -11.664062 0.433594 -13.175781 C 0.433594 -14.6875 0.0703125 -15.769531 -1.367188 -15.769531 C -3.457031 -15.769531 -3.097656 -12.382812 -5.761719 -13.246094 C -6.769531 -13.535156 -11.59375 -16.273438 -11.59375 -17.28125 C -11.59375 -18.359375 -6.695312 -20.878906 -5.6875 -21.097656 C -2.953125 -21.816406 -3.382812 -18.574219 -1.296875 -18.574219 C 0.0703125 -18.574219 0.433594 -20.230469 0.433594 -22.246094 C 0.433594 -24.550781 0 -27.289062 0 -28.800781 C 0 -31.320312 0.574219 -33.984375 0.574219 -36.503906 C 0.574219 -38.449219 0.214844 -39.671875 -1.222656 -39.671875 C -2.664062 -39.671875 -2.953125 -38.230469 -4.246094 -36.792969 C -6.335938 -34.414062 -13.679688 -29.089844 -17.640625 -26.425781 C -18.503906 -25.847656 -19.726562 -25.921875 -20.664062 -26.496094 C -23.472656 -28.222656 -26.351562 -30.023438 -28.296875 -31.609375 C -32.761719 -35.929688 -32.257812 -39.382812 -34.632812 -39.382812 C -36.070312 -39.382812 -36.433594 -38.304688 -36.433594 -36.863281 C -36.433594 -35.351562 -36 -33.40625 -36 -31.96875 C -36 -30.527344 -36.433594 -28.511719 -36.433594 -27 C -36.433594 -25.488281 -36.070312 -24.40625 -34.632812 -24.40625 C -32.542969 -24.40625 -32.902344 -27.9375 -30.238281 -26.929688 C -29.230469 -26.566406 -24.625 -23.976562 -24.625 -22.824219 C -24.625 -22.535156 -24.839844 -22.175781 -25.34375 -21.886719 C -27.433594 -20.59375 -29.160156 -19.296875 -30.167969 -18.9375 C -32.902344 -18.144531 -32.472656 -21.457031 -34.558594 -21.457031 C -36.144531 -21.457031 -36.503906 -19.800781 -36.503906 -17.785156 C -36.503906 -15.480469 -36 -12.742188 -36 -11.230469 C -36 -8.710938 -36.433594 -6.046875 -36.433594 -3.527344 C -36.433594 -1.585938 -36.070312 -0.359375 -34.632812 -0.359375 Z M -34.632812 -0.359375 "/></g></g></g><g fill="#000000" fill-opacity="1"><g transform="translate(126.143438, 193.542938)"><g/></g></g><g fill="#000000" fill-opacity="1"><g transform="translate(155.393436, 193.542938)"><g/></g></g><g clip-path="url(#id1)"><g clip-path="url(#id2)"><g clip-path="url(#id3)"><path fill="#902124" d="M 170.160156 53.863281 C 170.566406 53.648438 171.035156 53.414062 171.441406 53.195312 C 171.953125 52.988281 172.511719 52.800781 173.023438 52.589844 L 173.132812 52.597656 C 173.753906 52.394531 174.402344 52.148438 175.15625 51.910156 C 175.78125 51.703125 176.535156 51.464844 177.242188 51.308594 C 177.90625 51.128906 178.589844 51.015625 179.207031 50.921875 L 179.953125 50.792969 C 180.261719 50.742188 180.636719 50.679688 181.03125 50.679688 C 181.378906 50.65625 181.839844 50.640625 182.296875 50.621094 C 182.515625 50.632812 182.691406 50.621094 182.910156 50.636719 C 183.125 50.648438 183.34375 50.660156 183.585938 50.632812 C 184.042969 50.613281 184.480469 50.640625 184.871094 50.640625 C 185.71875 50.734375 186.605469 50.851562 187.425781 50.984375 C 188.03125 51.105469 188.632812 51.230469 189.171875 51.367188 C 189.558594 51.480469 189.902344 51.5625 190.3125 51.632812 C 190.507812 51.6875 190.65625 51.714844 190.875 51.730469 C 191.175781 51.789062 191.480469 51.851562 191.78125 51.914062 C 192.167969 52.023438 192.554688 52.132812 192.898438 52.21875 L 193.199219 52.277344 L 193.5 52.339844 C 193.886719 52.449219 194.273438 52.558594 194.703125 52.691406 C 195.046875 52.777344 195.410156 52.929688 195.730469 53.054688 L 195.773438 53.082031 C 196.175781 53.257812 196.691406 53.4375 197.136719 53.640625 C 197.304688 53.738281 197.542969 53.816406 197.710938 53.914062 C 197.921875 54.035156 198.199219 54.136719 198.410156 54.257812 C 199.261719 54.632812 200.171875 55.101562 201.1875 55.683594 L 201.355469 55.78125 C 202.117188 56.214844 202.921875 56.675781 203.742188 57.203125 C 203.996094 57.351562 204.222656 57.539062 204.476562 57.683594 C 204.648438 57.78125 204.75 57.894531 204.917969 57.992188 L 205.085938 58.089844 C 205.382812 58.257812 205.613281 58.445312 205.910156 58.617188 C 206.136719 58.804688 206.410156 59.015625 206.640625 59.203125 C 206.785156 59.34375 206.996094 59.464844 207.140625 59.601562 C 207.328125 59.765625 207.539062 59.886719 207.683594 60.027344 C 207.914062 60.214844 208.167969 60.359375 208.394531 60.546875 C 208.75 60.808594 209.082031 61.109375 209.414062 61.414062 L 209.707031 61.691406 L 209.890625 61.855469 C 210.265625 62.179688 210.683594 62.53125 211.074219 62.925781 C 211.449219 63.253906 211.800781 63.621094 212.234375 64.039062 C 212.523438 64.316406 212.746094 64.613281 212.996094 64.867188 C 213.097656 64.980469 213.199219 65.097656 213.300781 65.210938 C 213.628906 65.625 214.019531 66.015625 214.371094 66.386719 C 214.574219 66.617188 214.847656 66.828125 215.050781 67.058594 L 215.195312 67.195312 C 215.257812 67.285156 215.339844 67.335938 215.425781 67.382812 C 215.890625 67.652344 216.550781 67.578125 216.960938 67.253906 C 217.09375 67.21875 217.25 67.140625 217.367188 67.039062 C 217.777344 66.714844 218.210938 66.347656 218.671875 65.9375 C 218.875 65.773438 219.082031 65.613281 219.222656 65.46875 L 219.402344 65.347656 C 219.585938 65.226562 219.722656 65.082031 219.863281 64.9375 C 220 64.792969 220.183594 64.671875 220.386719 64.511719 C 220.773438 64.226562 220.914062 63.691406 220.769531 63.160156 L 220.738281 62.917969 C 220.710938 62.675781 220.589844 62.496094 220.425781 62.289062 L 220.347656 62.132812 C 220.183594 61.925781 220.046875 61.679688 219.882812 61.472656 C 219.722656 61.269531 219.515625 61.039062 219.394531 60.855469 C 219.25 60.71875 219.085938 60.511719 218.964844 60.332031 L 218.761719 60.101562 C 218.597656 59.894531 218.410156 59.730469 218.265625 59.59375 C 218.207031 59.503906 218.121094 59.453125 218.0625 59.363281 C 217.8125 59.109375 217.566406 58.855469 217.320312 58.601562 C 217.011719 58.257812 216.660156 57.886719 216.328125 57.585938 C 216.039062 57.304688 215.75 57.027344 215.460938 56.75 C 215.085938 56.421875 214.738281 56.054688 214.386719 55.683594 C 213.730469 54.972656 212.933594 54.402344 212.203125 53.816406 L 211.972656 53.628906 C 211.785156 53.464844 211.53125 53.316406 211.34375 53.15625 C 210.84375 52.753906 210.300781 52.332031 209.734375 51.949219 L 209.605469 51.878906 C 208.953125 51.445312 208.285156 50.949219 207.609375 50.5625 C 207.398438 50.441406 207.144531 50.296875 206.933594 50.175781 C 206.507812 49.933594 206.042969 49.664062 205.644531 49.382812 L 205.390625 49.234375 C 205.140625 49.089844 204.910156 48.902344 204.65625 48.757812 C 204.613281 48.734375 204.613281 48.734375 204.570312 48.707031 C 204.234375 48.515625 203.851562 48.296875 203.40625 48.097656 C 202.664062 47.726562 201.9375 47.421875 201.195312 47.050781 L 200.875 46.925781 C 200.304688 46.652344 199.8125 46.425781 199.300781 46.246094 C 198.914062 46.136719 198.550781 45.984375 198.121094 45.851562 L 197.796875 45.832031 C 197.5625 45.753906 197.367188 45.699219 197.132812 45.617188 C 196.382812 45.355469 195.570312 45.113281 194.796875 44.894531 C 193.957031 44.695312 193.117188 44.492188 192.277344 44.289062 C 192.125 44.261719 192.019531 44.253906 191.867188 44.222656 C 189.863281 43.800781 188.261719 43.558594 186.738281 43.46875 C 185.785156 43.371094 184.890625 43.363281 184.039062 43.378906 C 183.820312 43.363281 183.578125 43.394531 183.363281 43.382812 C 183.144531 43.371094 182.96875 43.382812 182.753906 43.367188 C 182.292969 43.386719 181.875 43.425781 181.484375 43.425781 L 181.308594 43.4375 L 181.484375 43.425781 C 180.847656 43.453125 180.234375 43.550781 179.640625 43.601562 C 179.332031 43.648438 179.023438 43.699219 178.742188 43.703125 C 177.839844 43.804688 176.917969 43.945312 175.902344 44.148438 C 175.019531 44.316406 174.132812 44.589844 173.109375 44.902344 C 172.445312 45.082031 171.601562 45.382812 170.710938 45.65625 C 170.023438 45.878906 169.285156 46.183594 168.390625 46.570312 C 167.878906 46.777344 167.40625 47.011719 166.933594 47.246094 L 166.457031 47.589844 L 166.300781 47.667969 C 166.011719 47.78125 165.738281 47.960938 165.449219 48.078125 C 165.132812 48.234375 164.835938 48.457031 164.523438 48.613281 L 164.410156 48.714844 L 164.160156 48.851562 C 163.820312 49.050781 163.460938 49.289062 163.097656 49.53125 C 163.03125 49.550781 163.007812 49.589844 162.914062 49.652344 C 162.734375 49.773438 162.578125 49.851562 162.4375 49.996094 L 162.414062 50.035156 C 162.207031 50.199219 161.960938 50.335938 161.710938 50.476562 C 161.191406 50.792969 160.738281 51.09375 160.238281 51.480469 C 159.917969 51.746094 159.640625 52.035156 159.34375 52.257812 C 159.089844 52.503906 158.859375 52.707031 158.5625 52.929688 C 158.152344 53.253906 157.800781 53.671875 157.433594 54.019531 L 157.292969 54.164062 C 157.128906 54.351562 156.949219 54.472656 156.785156 54.65625 C 156.441406 54.964844 156.113281 55.339844 155.789062 55.710938 C 155.714844 55.839844 155.625 55.898438 155.550781 56.023438 C 155.503906 56.109375 155.414062 56.167969 155.363281 56.253906 L 155.273438 56.3125 C 155.160156 56.417969 155.085938 56.542969 154.996094 56.601562 C 154.554688 57.078125 154.132812 57.621094 153.707031 58.164062 C 153.519531 58.390625 153.375 58.644531 153.230469 58.898438 C 153.179688 58.984375 153.132812 59.066406 153.085938 59.152344 L 153.035156 59.234375 C 153.011719 59.277344 152.988281 59.320312 152.9375 59.40625 C 152.792969 59.65625 152.714844 59.894531 152.65625 60.195312 C 152.625 60.34375 152.636719 60.519531 152.714844 60.675781 C 152.734375 60.742188 152.707031 60.785156 152.75 60.808594 C 152.785156 60.941406 152.847656 61.035156 152.882812 61.167969 C 152.980469 61.390625 153.125 61.53125 153.335938 61.652344 C 153.421875 61.699219 153.480469 61.789062 153.539062 61.878906 C 153.644531 61.996094 153.703125 62.085938 153.832031 62.160156 C 154.058594 62.347656 154.265625 62.578125 154.496094 62.765625 L 154.640625 62.902344 C 154.742188 63.019531 154.886719 63.15625 155.011719 63.230469 C 155.097656 63.277344 155.117188 63.34375 155.199219 63.394531 L 155.285156 63.441406 L 155.371094 63.492188 L 155.453125 63.539062 C 155.496094 63.5625 155.554688 63.652344 155.597656 63.679688 C 155.785156 63.839844 155.90625 64.023438 156.117188 64.144531 C 156.457031 64.339844 156.800781 64.421875 157.132812 64.332031 C 157.398438 64.261719 157.621094 64.164062 157.808594 63.9375 C 157.898438 63.875 157.992188 63.816406 158.039062 63.730469 C 158.25 63.460938 158.4375 63.230469 158.648438 62.960938 C 158.722656 62.835938 158.835938 62.730469 158.933594 62.5625 C 159.261719 62.191406 159.585938 61.816406 160.003906 61.382812 C 160.375 61.035156 160.722656 60.617188 161.257812 60.082031 C 161.671875 59.648438 162.132812 59.238281 162.566406 58.871094 C 162.683594 58.769531 162.773438 58.710938 162.886719 58.609375 L 163.390625 58.222656 C 163.890625 57.839844 164.394531 57.453125 164.917969 57.027344 C 165.238281 56.761719 165.601562 56.519531 165.964844 56.28125 C 166.328125 56.039062 166.734375 55.824219 167.097656 55.582031 L 167.253906 55.503906 C 167.929688 55.109375 168.699219 54.652344 169.417969 54.277344 C 169.574219 54.199219 169.84375 54.019531 170.160156 53.863281 Z M 170.160156 53.863281 " fill-opacity="1" fill-rule="nonzero"/></g></g></g><g clip-path="url(#id4)"><g clip-path="url(#id5)"><g clip-path="url(#id6)"><path fill="#060644" d="M 168.847656 42.574219 C 169.289062 42.347656 169.800781 42.101562 170.242188 41.871094 C 170.800781 41.652344 171.40625 41.460938 171.964844 41.238281 L 172.082031 41.25 C 172.757812 41.035156 173.460938 40.78125 174.285156 40.53125 C 174.960938 40.320312 175.78125 40.070312 176.550781 39.914062 C 177.269531 39.726562 178.011719 39.617188 178.679688 39.523438 L 179.496094 39.390625 C 179.828125 39.34375 180.234375 39.277344 180.660156 39.285156 C 181.042969 39.265625 181.539062 39.253906 182.039062 39.238281 C 182.273438 39.257812 182.464844 39.246094 182.699219 39.261719 C 182.933594 39.28125 183.167969 39.296875 183.433594 39.269531 C 183.929688 39.257812 184.402344 39.289062 184.828125 39.296875 C 185.742188 39.40625 186.703125 39.546875 187.59375 39.703125 C 188.246094 39.84375 188.902344 39.984375 189.480469 40.144531 C 189.898438 40.269531 190.273438 40.363281 190.71875 40.441406 C 190.925781 40.503906 191.089844 40.539062 191.324219 40.558594 C 191.652344 40.628906 191.980469 40.699219 192.304688 40.769531 C 192.722656 40.890625 193.140625 41.015625 193.515625 41.113281 L 193.839844 41.183594 L 194.167969 41.253906 C 194.585938 41.378906 195.003906 41.5 195.46875 41.652344 C 195.839844 41.75 196.230469 41.917969 196.578125 42.058594 L 196.621094 42.085938 C 197.058594 42.28125 197.613281 42.488281 198.097656 42.710938 C 198.277344 42.816406 198.535156 42.90625 198.714844 43.011719 C 198.945312 43.148438 199.242188 43.261719 199.472656 43.398438 C 200.390625 43.816406 201.375 44.332031 202.46875 44.976562 L 202.652344 45.085938 C 203.472656 45.566406 204.339844 46.074219 205.222656 46.65625 C 205.496094 46.816406 205.746094 47.023438 206.019531 47.183594 C 206.199219 47.292969 206.3125 47.417969 206.492188 47.523438 L 206.675781 47.632812 C 206.996094 47.820312 207.242188 48.027344 207.5625 48.214844 C 207.808594 48.421875 208.101562 48.652344 208.347656 48.859375 C 208.503906 49.011719 208.730469 49.144531 208.886719 49.296875 C 209.089844 49.476562 209.316406 49.613281 209.472656 49.765625 C 209.71875 49.96875 209.992188 50.132812 210.238281 50.335938 C 210.621094 50.625 210.980469 50.957031 211.335938 51.289062 L 211.648438 51.59375 L 211.851562 51.773438 C 212.253906 52.128906 212.699219 52.515625 213.121094 52.945312 C 213.523438 53.304688 213.902344 53.707031 214.367188 54.167969 C 214.679688 54.472656 214.917969 54.792969 215.183594 55.074219 C 215.296875 55.199219 215.40625 55.324219 215.515625 55.449219 C 215.863281 55.898438 216.285156 56.332031 216.664062 56.734375 C 216.882812 56.984375 217.175781 57.21875 217.394531 57.46875 L 217.550781 57.621094 C 217.617188 57.722656 217.707031 57.773438 217.796875 57.828125 C 218.300781 58.125 219.015625 58.054688 219.464844 57.710938 C 219.609375 57.671875 219.777344 57.589844 219.902344 57.480469 C 220.351562 57.136719 220.828125 56.746094 221.328125 56.308594 C 221.554688 56.136719 221.777344 55.964844 221.929688 55.808594 L 222.128906 55.683594 C 222.324219 55.554688 222.476562 55.398438 222.628906 55.246094 C 222.78125 55.089844 222.980469 54.964844 223.203125 54.792969 C 223.625 54.492188 223.78125 53.914062 223.628906 53.335938 L 223.601562 53.074219 C 223.570312 52.8125 223.441406 52.613281 223.265625 52.390625 L 223.183594 52.21875 C 223.007812 51.996094 222.859375 51.726562 222.683594 51.5 C 222.511719 51.277344 222.289062 51.023438 222.160156 50.828125 C 222.003906 50.671875 221.832031 50.449219 221.703125 50.25 L 221.480469 50 C 221.304688 49.773438 221.105469 49.597656 220.949219 49.445312 C 220.882812 49.34375 220.792969 49.292969 220.730469 49.191406 C 220.464844 48.914062 220.195312 48.636719 219.929688 48.359375 C 219.601562 47.980469 219.226562 47.578125 218.867188 47.246094 C 218.554688 46.941406 218.246094 46.632812 217.933594 46.328125 C 217.53125 45.972656 217.15625 45.566406 216.777344 45.164062 C 216.070312 44.382812 215.214844 43.753906 214.425781 43.109375 L 214.179688 42.902344 C 213.976562 42.726562 213.703125 42.5625 213.503906 42.382812 C 212.964844 41.945312 212.378906 41.480469 211.765625 41.058594 L 211.628906 40.980469 C 210.925781 40.503906 210.207031 39.957031 209.476562 39.53125 C 209.25 39.394531 208.976562 39.234375 208.746094 39.101562 C 208.289062 38.832031 207.789062 38.539062 207.359375 38.222656 L 207.085938 38.0625 C 206.8125 37.902344 206.566406 37.695312 206.292969 37.535156 C 206.246094 37.507812 206.246094 37.507812 206.203125 37.480469 C 205.835938 37.269531 205.425781 37.027344 204.945312 36.804688 C 204.140625 36.394531 203.359375 36.054688 202.558594 35.644531 L 202.210938 35.503906 C 201.59375 35.199219 201.0625 34.949219 200.507812 34.746094 C 200.089844 34.621094 199.699219 34.453125 199.238281 34.300781 L 198.882812 34.277344 C 198.628906 34.1875 198.417969 34.125 198.164062 34.035156 C 197.355469 33.742188 196.472656 33.46875 195.636719 33.222656 C 194.730469 32.992188 193.820312 32.761719 192.914062 32.535156 C 192.75 32.5 192.632812 32.488281 192.46875 32.453125 C 190.300781 31.972656 188.566406 31.683594 186.917969 31.566406 C 185.882812 31.445312 184.914062 31.425781 183.992188 31.429688 C 183.753906 31.414062 183.492188 31.441406 183.257812 31.425781 C 183.019531 31.410156 182.832031 31.417969 182.597656 31.402344 C 182.097656 31.414062 181.644531 31.453125 181.21875 31.445312 L 181.03125 31.457031 L 181.21875 31.445312 C 180.53125 31.46875 179.863281 31.5625 179.222656 31.613281 C 178.886719 31.660156 178.550781 31.707031 178.242188 31.707031 C 177.265625 31.804688 176.265625 31.945312 175.160156 32.152344 C 174.203125 32.320312 173.238281 32.605469 172.128906 32.925781 C 171.40625 33.113281 170.488281 33.421875 169.519531 33.710938 C 168.773438 33.9375 167.96875 34.261719 166.996094 34.664062 C 166.4375 34.882812 165.925781 35.128906 165.414062 35.375 L 164.890625 35.738281 L 164.71875 35.824219 C 164.40625 35.941406 164.109375 36.132812 163.792969 36.253906 C 163.449219 36.417969 163.128906 36.652344 162.785156 36.816406 L 162.660156 36.925781 L 162.390625 37.074219 C 162.019531 37.28125 161.625 37.539062 161.230469 37.792969 C 161.160156 37.8125 161.132812 37.855469 161.03125 37.917969 C 160.835938 38.046875 160.664062 38.128906 160.511719 38.285156 L 160.484375 38.328125 C 160.261719 38.503906 159.992188 38.648438 159.722656 38.792969 C 159.15625 39.132812 158.660156 39.449219 158.113281 39.859375 C 157.761719 40.140625 157.460938 40.449219 157.136719 40.6875 C 156.859375 40.949219 156.609375 41.167969 156.285156 41.40625 C 155.835938 41.75 155.453125 42.195312 155.050781 42.566406 L 154.898438 42.722656 C 154.71875 42.921875 154.519531 43.046875 154.339844 43.25 C 153.964844 43.574219 153.609375 43.972656 153.25 44.375 C 153.171875 44.507812 153.070312 44.574219 152.992188 44.710938 C 152.9375 44.800781 152.839844 44.863281 152.785156 44.953125 L 152.6875 45.019531 C 152.5625 45.125 152.480469 45.261719 152.382812 45.328125 C 151.902344 45.835938 151.4375 46.414062 150.972656 46.996094 C 150.765625 47.238281 150.609375 47.511719 150.449219 47.785156 C 150.394531 47.875 150.339844 47.964844 150.289062 48.054688 L 150.234375 48.144531 C 150.207031 48.191406 150.183594 48.238281 150.128906 48.328125 C 149.96875 48.597656 149.882812 48.851562 149.8125 49.175781 C 149.777344 49.339844 149.789062 49.527344 149.875 49.699219 C 149.890625 49.773438 149.867188 49.816406 149.910156 49.84375 C 149.949219 49.988281 150.011719 50.085938 150.050781 50.230469 C 150.152344 50.476562 150.308594 50.628906 150.539062 50.761719 C 150.628906 50.816406 150.695312 50.914062 150.757812 51.011719 C 150.867188 51.136719 150.933594 51.238281 151.070312 51.316406 C 151.316406 51.523438 151.535156 51.773438 151.785156 51.980469 L 151.941406 52.132812 C 152.050781 52.257812 152.207031 52.410156 152.34375 52.492188 C 152.433594 52.546875 152.453125 52.617188 152.542969 52.671875 L 152.636719 52.726562 L 152.726562 52.777344 L 152.816406 52.832031 C 152.863281 52.859375 152.925781 52.957031 152.972656 52.984375 C 153.175781 53.164062 153.304688 53.363281 153.53125 53.496094 C 153.894531 53.710938 154.269531 53.808594 154.628906 53.714844 C 154.917969 53.640625 155.160156 53.539062 155.367188 53.296875 C 155.464844 53.230469 155.566406 53.167969 155.617188 53.078125 C 155.851562 52.789062 156.054688 52.542969 156.289062 52.253906 C 156.367188 52.117188 156.492188 52.007812 156.597656 51.828125 C 156.957031 51.425781 157.3125 51.027344 157.769531 50.566406 C 158.171875 50.191406 158.558594 49.75 159.140625 49.175781 C 159.59375 48.714844 160.097656 48.277344 160.574219 47.886719 C 160.699219 47.777344 160.796875 47.714844 160.921875 47.605469 L 161.46875 47.195312 C 162.015625 46.785156 162.5625 46.375 163.136719 45.921875 C 163.488281 45.640625 163.882812 45.386719 164.277344 45.128906 C 164.675781 44.875 165.117188 44.648438 165.511719 44.390625 L 165.683594 44.308594 C 166.417969 43.890625 167.253906 43.40625 168.039062 43.015625 C 168.210938 42.929688 168.507812 42.742188 168.847656 42.574219 Z M 168.847656 42.574219 " fill-opacity="1" fill-rule="nonzero"/></g></g></g><g fill="#000000" fill-opacity="1"><g transform="translate(95.808581, 281.093199)"><g><path d="M 0.878906 -42.589844 C 0.878906 -39.421875 3.871094 -40.832031 3.871094 -32.648438 L 3.871094 -11.351562 C 3.871094 -3.078125 0.878906 -3.695312 0.878906 -1.144531 C 0.878906 0.175781 1.671875 0.527344 2.640625 0.527344 C 3.871094 0.527344 5.457031 0 6.601562 0 C 7.742188 0 9.503906 0.527344 10.824219 0.527344 C 11.878906 0.527344 12.671875 0.175781 12.671875 -1.144531 C 12.671875 -3.695312 9.679688 -3.078125 9.679688 -11.351562 L 9.679688 -32.472656 C 9.679688 -32.648438 10.207031 -33.085938 10.382812 -32.558594 C 12.144531 -27.277344 16.808594 -12.671875 20.238281 -3.078125 C 21.03125 -0.878906 21.824219 0.527344 23.054688 0.527344 C 24.640625 0.527344 25.253906 -0.527344 26.136719 -3.078125 C 29.480469 -12.757812 34.40625 -27.277344 36.167969 -32.558594 C 36.34375 -33.085938 36.871094 -32.648438 36.871094 -32.472656 C 36.871094 -26.488281 36.957031 -15.574219 36.957031 -11.351562 C 36.957031 -3.078125 33.96875 -4.222656 33.96875 -1.671875 C 33.96875 0.0898438 35.464844 0.527344 37.488281 0.527344 C 39.597656 0.527344 42.238281 0 44 0 C 45.757812 0 48.398438 0.527344 50.511719 0.527344 C 52.535156 0.527344 54.03125 0.0898438 54.03125 -1.671875 C 54.03125 -4.222656 51.039062 -3.078125 51.039062 -11.351562 L 51.039062 -32.648438 C 51.039062 -40.832031 54.03125 -39.421875 54.03125 -42.589844 C 54.03125 -44.175781 52.710938 -44.527344 50.773438 -44.527344 C 48.574219 -44.527344 45.757812 -44 43.472656 -44 C 41.535156 -44 39.773438 -44.613281 38.191406 -44.613281 C 36.34375 -44.613281 34.671875 -43.824219 33.351562 -40.390625 C 33.351562 -40.390625 31.589844 -34.496094 28.773438 -26.75 C 28.335938 -25.519531 27.808594 -25.519531 27.367188 -26.75 C 24.640625 -34.496094 22.792969 -40.390625 22.792969 -40.390625 C 21.472656 -43.824219 19.800781 -44.613281 17.777344 -44.613281 C 15.925781 -44.613281 13.902344 -44 11.441406 -44 C 9.152344 -44 6.335938 -44.527344 4.136719 -44.527344 C 2.199219 -44.527344 0.878906 -44.175781 0.878906 -42.589844 Z M 0.878906 -42.589844 "/></g></g></g><g fill="#000000" fill-opacity="1"><g transform="translate(145.790179, 281.093199)"><g><path d="M 0.878906 -42.238281 C 0.878906 -39.6875 3.871094 -40.566406 3.871094 -32.648438 L 3.871094 -11.351562 C 3.960938 -3.078125 0.96875 -4.222656 0.96875 -1.671875 C 0.96875 0.0898438 2.464844 0.527344 4.488281 0.527344 C 6.601562 0.527344 9.238281 0 11 0 C 16.632812 0 23.933594 0.0898438 34.40625 0.527344 C 38.277344 0.703125 38.277344 -2.816406 39.597656 -7.480469 C 41.796875 -15.398438 42.414062 -18.128906 39.597656 -18.128906 C 35.109375 -18.128906 34.671875 -5.28125 20.238281 -4.3125 C 18.917969 -4.222656 18.039062 -5.105469 18.039062 -6.421875 L 18.039062 -17.421875 C 18.039062 -18.832031 18.917969 -19.625 20.238281 -19.449219 C 28.160156 -18.390625 26.574219 -14.34375 29.917969 -14.34375 C 33.527344 -14.34375 32.03125 -19.449219 32.03125 -22.085938 C 32.03125 -24.726562 33.527344 -29.832031 29.917969 -29.832031 C 26.574219 -29.832031 28.160156 -25.605469 20.238281 -24.550781 C 18.917969 -24.375 18.039062 -25.167969 18.039062 -26.574219 L 18.039062 -37.222656 C 18.039062 -38.542969 18.917969 -39.421875 20.238281 -39.335938 C 33.792969 -38.453125 34.054688 -29.128906 37.925781 -29.128906 C 41.796875 -29.128906 39.246094 -34.671875 36.605469 -41.007812 C 35.199219 -44.4375 33.792969 -44.4375 29.917969 -44.527344 C 26.222656 -44.613281 20.765625 -44 13.199219 -44 C 11.96875 -44 10.734375 -44 9.328125 -44 C 7.566406 -44 5.367188 -44.527344 3.609375 -44.527344 C 2.023438 -44.527344 0.878906 -44.085938 0.878906 -42.238281 Z M 0.878906 -42.238281 "/></g></g></g><g fill="#000000" fill-opacity="1"><g transform="translate(183.188325, 281.093199)"><g><path d="M 10.910156 0 C 13.550781 0 18.742188 0.527344 21.03125 0.527344 C 34.933594 0.527344 43.207031 -7.566406 43.207031 -22 C 43.207031 -36.429688 34.933594 -44.527344 21.03125 -44.527344 C 18.742188 -44.527344 13.550781 -44 10.910156 -44 C 9.152344 -44 6.511719 -44.527344 4.398438 -44.527344 C 2.375 -44.527344 0.878906 -44.085938 0.878906 -42.328125 C 0.878906 -39.773438 3.871094 -40.917969 3.871094 -32.648438 L 3.871094 -11.351562 C 3.871094 -3.078125 0.878906 -4.222656 0.878906 -1.671875 C 0.878906 0.0898438 2.375 0.527344 4.398438 0.527344 C 6.511719 0.527344 9.152344 0 10.910156 0 Z M 18.128906 -6.421875 L 18.128906 -37.136719 C 18.128906 -38.542969 19.007812 -39.070312 20.328125 -39.070312 C 26.839844 -39.070312 28.246094 -28.246094 28.246094 -22 C 28.246094 -15.398438 27.015625 -4.488281 20.328125 -4.488281 C 19.007812 -4.488281 18.128906 -5.015625 18.128906 -6.421875 Z M 18.128906 -6.421875 "/></g></g></g><g fill="#000000" fill-opacity="1"><g transform="translate(223.226358, 281.093199)"><g><path d="M 0.878906 -1.671875 C 0.878906 0.0898438 2.375 0.527344 4.398438 0.527344 C 6.511719 0.527344 9.152344 0 10.910156 0 C 12.671875 0 15.3125 0.527344 17.421875 0.527344 C 19.449219 0.527344 20.945312 0.0898438 20.945312 -1.671875 C 20.945312 -4.222656 17.953125 -3.078125 17.953125 -11.351562 L 17.953125 -32.648438 C 17.953125 -40.917969 20.945312 -39.773438 20.945312 -42.328125 C 20.945312 -44.085938 19.449219 -44.527344 17.421875 -44.527344 C 15.3125 -44.527344 12.671875 -44 10.910156 -44 C 9.152344 -44 6.511719 -44.527344 4.398438 -44.527344 C 2.375 -44.527344 0.878906 -44.085938 0.878906 -42.328125 C 0.878906 -39.773438 3.871094 -40.917969 3.871094 -32.648438 L 3.871094 -11.351562 C 3.871094 -3.078125 0.878906 -4.222656 0.878906 -1.671875 Z M 0.878906 -1.671875 "/></g></g></g><g fill="#000000" fill-opacity="1"><g transform="translate(240.121407, 281.093199)"><g><path d="M 0.441406 -1.671875 C 0.441406 0 1.9375 0.527344 3.609375 0.527344 C 5.632812 0.527344 6.335938 0 8.097656 0 C 9.855469 0 10.558594 0.527344 12.582031 0.527344 C 14.253906 0.527344 15.75 0 15.75 -1.671875 C 15.75 -3.785156 12.9375 -3.609375 12.9375 -8.800781 C 12.9375 -11.527344 14.34375 -13.113281 16.367188 -13.113281 L 24.464844 -13.113281 C 26.488281 -13.113281 27.894531 -11.527344 27.894531 -8.800781 C 27.894531 -3.609375 25.695312 -4.222656 25.695312 -1.671875 C 25.695312 0.0898438 27.367188 0.527344 29.480469 0.527344 C 31.765625 0.527344 34.582031 0 36.34375 0 C 39.949219 0 43.117188 0.527344 45.40625 0.527344 C 47.429688 0.527344 48.664062 0.0898438 48.664062 -1.671875 C 48.664062 -3.433594 47.34375 -3.609375 45.40625 -6.070312 C 42.503906 -9.769531 35.285156 -36.253906 32.734375 -42.503906 C 31.941406 -44.4375 31.152344 -44.527344 29.832031 -44.527344 C 28.070312 -44.527344 26.574219 -44 23.144531 -44 C 20.0625 -44 19.625 -44.527344 17.421875 -44.527344 C 15.574219 -44.527344 13.816406 -44.261719 13.816406 -42.679688 C 13.816406 -40.304688 17.335938 -41.445312 15.574219 -36.167969 C 12.230469 -26.136719 7.566406 -10.472656 5.457031 -7.480469 C 2.640625 -3.519531 0.441406 -3.785156 0.441406 -1.671875 Z M 15.398438 -19.449219 C 16.984375 -23.933594 18.480469 -29.390625 19.625 -32.648438 C 19.886719 -33.351562 20.152344 -33.703125 20.414062 -33.703125 C 20.679688 -33.703125 20.945312 -33.351562 21.207031 -32.558594 C 22.175781 -29.304688 23.582031 -23.933594 25.167969 -19.449219 C 25.605469 -18.214844 25.078125 -17.421875 23.847656 -17.421875 L 16.71875 -17.421875 C 15.488281 -17.421875 14.960938 -18.214844 15.398438 -19.449219 Z M 15.398438 -19.449219 "/></g></g></g><g fill="#000000" fill-opacity="1"><g transform="translate(105.927463, 152.647394)"><g><path d="M 10.910156 0 C 13.550781 0 18.742188 0.527344 21.03125 0.527344 C 34.933594 0.527344 43.207031 -7.566406 43.207031 -22 C 43.207031 -36.429688 34.933594 -44.527344 21.03125 -44.527344 C 18.742188 -44.527344 13.550781 -44 10.910156 -44 C 9.152344 -44 6.511719 -44.527344 4.398438 -44.527344 C 2.375 -44.527344 0.878906 -44.085938 0.878906 -42.328125 C 0.878906 -39.773438 3.871094 -40.917969 3.871094 -32.648438 L 3.871094 -11.351562 C 3.871094 -3.078125 0.878906 -4.222656 0.878906 -1.671875 C 0.878906 0.0898438 2.375 0.527344 4.398438 0.527344 C 6.511719 0.527344 9.152344 0 10.910156 0 Z M 18.128906 -6.421875 L 18.128906 -37.136719 C 18.128906 -38.542969 19.007812 -39.070312 20.328125 -39.070312 C 26.839844 -39.070312 28.246094 -28.246094 28.246094 -22 C 28.246094 -15.398438 27.015625 -4.488281 20.328125 -4.488281 C 19.007812 -4.488281 18.128906 -5.015625 18.128906 -6.421875 Z M 18.128906 -6.421875 "/></g></g></g><g fill="#000000" fill-opacity="1"><g transform="translate(136.109525, 152.647394)"><g><path d="M 0.878906 -42.238281 C 0.878906 -39.6875 3.871094 -40.566406 3.871094 -32.648438 L 3.871094 -11.351562 C 3.960938 -3.078125 0.96875 -4.222656 0.96875 -1.671875 C 0.96875 0.0898438 2.464844 0.527344 4.488281 0.527344 C 6.601562 0.527344 9.238281 0 11 0 C 16.632812 0 23.933594 0.0898438 34.40625 0.527344 C 38.277344 0.703125 38.277344 -2.816406 39.597656 -7.480469 C 41.796875 -15.398438 42.414062 -18.128906 39.597656 -18.128906 C 35.109375 -18.128906 34.671875 -5.28125 20.238281 -4.3125 C 18.917969 -4.222656 18.039062 -5.105469 18.039062 -6.421875 L 18.039062 -17.421875 C 18.039062 -18.832031 18.917969 -19.625 20.238281 -19.449219 C 28.160156 -18.390625 26.574219 -14.34375 29.917969 -14.34375 C 33.527344 -14.34375 32.03125 -19.449219 32.03125 -22.085938 C 32.03125 -24.726562 33.527344 -29.832031 29.917969 -29.832031 C 26.574219 -29.832031 28.160156 -25.605469 20.238281 -24.550781 C 18.917969 -24.375 18.039062 -25.167969 18.039062 -26.574219 L 18.039062 -37.222656 C 18.039062 -38.542969 18.917969 -39.421875 20.238281 -39.335938 C 33.792969 -38.453125 34.054688 -29.128906 37.925781 -29.128906 C 41.796875 -29.128906 39.246094 -34.671875 36.605469 -41.007812 C 35.199219 -44.4375 33.792969 -44.4375 29.917969 -44.527344 C 26.222656 -44.613281 20.765625 -44 13.199219 -44 C 11.96875 -44 10.734375 -44 9.328125 -44 C 7.566406 -44 5.367188 -44.527344 3.609375 -44.527344 C 2.023438 -44.527344 0.878906 -44.085938 0.878906 -42.238281 Z M 0.878906 -42.238281 "/></g></g></g><g fill="#000000" fill-opacity="1"><g transform="translate(163.651698, 152.647394)"><g><path d="M 0.441406 -41.976562 C 0.441406 -39.597656 2.992188 -39.070312 4.664062 -37.398438 C 8.449219 -33.613281 13.902344 -22 16.367188 -16.632812 L 16.542969 -11.351562 C 16.542969 -3.078125 13.550781 -4.222656 13.550781 -1.671875 C 13.550781 0.0898438 15.046875 0.527344 17.070312 0.527344 C 19.183594 0.527344 21.824219 0 23.582031 0 C 25.34375 0 27.984375 0.527344 30.09375 0.527344 C 32.117188 0.527344 33.613281 0.0898438 33.613281 -1.671875 C 33.613281 -4.222656 30.625 -3.078125 30.625 -11.351562 L 30.625 -16.632812 C 33 -22 38.015625 -33.085938 42.238281 -37.664062 C 43.734375 -39.335938 46.460938 -40.304688 46.460938 -42.414062 C 46.460938 -44.085938 45.230469 -44.527344 43.734375 -44.527344 C 41.976562 -44.527344 39.863281 -44 38.453125 -44 C 36.695312 -44 34.757812 -44.4375 33.175781 -44.4375 C 31.679688 -44.4375 30.625 -44 30.625 -42.238281 C 30.625 -39.6875 34.757812 -40.125 33.703125 -36.871094 C 31.765625 -31.414062 29.832031 -27.367188 28.863281 -25.167969 C 28.335938 -23.933594 27.894531 -23.933594 27.367188 -25.167969 C 26.398438 -27.367188 25.078125 -30.269531 23.144531 -35.726562 C 22.175781 -39.070312 25.871094 -39.421875 25.871094 -41.976562 C 25.871094 -43.824219 24.816406 -44.527344 21.910156 -44.527344 C 19.183594 -44.527344 14.519531 -44 12.320312 -44 C 10.03125 -44 7.214844 -44.527344 4.488281 -44.527344 C 1.496094 -44.527344 0.441406 -43.824219 0.441406 -41.976562 Z M 0.441406 -41.976562 "/></g></g></g><g fill="#000000" fill-opacity="1"><g transform="translate(195.769677, 152.647394)"><g><path d="M 0.878906 -42.328125 C 0.878906 -39.773438 3.871094 -40.917969 3.871094 -32.648438 L 3.871094 -17.246094 C 3.871094 -4.664062 10.734375 0.527344 23.40625 0.527344 C 36.253906 0.527344 42.765625 -4.75 42.765625 -17.246094 L 42.765625 -32.734375 C 42.765625 -41.007812 45.757812 -39.863281 45.757812 -42.414062 C 45.757812 -44.175781 44.175781 -44.613281 42.238281 -44.613281 C 40.039062 -44.613281 37.398438 -44.085938 35.640625 -44.085938 C 33.878906 -44.085938 31.238281 -44.613281 29.128906 -44.613281 C 27.101562 -44.613281 25.605469 -44.175781 25.605469 -42.414062 C 25.605469 -39.863281 28.597656 -41.007812 28.597656 -32.734375 L 28.597656 -15.488281 C 28.597656 -11.085938 28.160156 -5.191406 23.320312 -5.191406 C 18.480469 -5.191406 18.039062 -11.085938 18.039062 -15.488281 L 18.039062 -32.734375 C 18.039062 -40.917969 21.03125 -39.773438 21.03125 -42.328125 C 21.03125 -44.085938 19.449219 -44.527344 17.511719 -44.527344 C 15.3125 -44.527344 12.671875 -44 10.910156 -44 C 9.152344 -44 6.511719 -44.527344 4.398438 -44.527344 C 2.375 -44.527344 0.878906 -44.085938 0.878906 -42.328125 Z M 0.878906 -42.328125 "/></g></g></g><g fill="#000000" fill-opacity="1"><g transform="translate(227.623664, 152.647394)"><g><path d="M 2.375 -8.710938 C 2.289062 -3.695312 0.617188 0.527344 4.136719 0.527344 C 6.601562 0.527344 7.304688 0 10.296875 0 C 14.785156 0 17.160156 0.527344 21.648438 0.527344 C 30.710938 0.527344 39.6875 -3.871094 39.6875 -12.320312 C 39.6875 -28.335938 16.191406 -26.488281 16.191406 -34.582031 C 16.191406 -37.488281 17.953125 -39.421875 21.296875 -39.421875 C 28.160156 -39.421875 30.359375 -29.128906 34.40625 -29.128906 C 39.597656 -29.128906 37.136719 -34.320312 33.175781 -43.207031 C 32.734375 -44.261719 32.03125 -44.527344 31.152344 -44.527344 C 30.007812 -44.527344 28.421875 -44 26.398438 -44 C 23.757812 -44 22.085938 -44.527344 18.65625 -44.527344 C 7.742188 -44.527344 2.199219 -38.894531 2.199219 -31.414062 C 2.199219 -15.136719 26.839844 -15.3125 26.925781 -8.449219 C 26.925781 -5.808594 24.902344 -5.015625 22.085938 -5.015625 C 9.945312 -5.015625 6.953125 -17.6875 3.519531 -17.6875 C 0.351562 -17.6875 2.375 -14.078125 2.375 -8.710938 Z M 2.375 -8.710938 "/></g></g></g><g fill="#000000" fill-opacity="1"><g transform="translate(149.263398, 199.147391)"><g><path d="M 0.878906 -42.238281 C 0.878906 -39.6875 3.871094 -40.566406 3.871094 -32.648438 L 3.871094 -11.351562 C 3.960938 -3.078125 0.96875 -4.222656 0.96875 -1.671875 C 0.96875 0.0898438 2.464844 0.527344 4.488281 0.527344 C 6.601562 0.527344 9.238281 0 11 0 C 16.632812 0 23.933594 0.0898438 34.40625 0.527344 C 38.277344 0.703125 38.277344 -2.816406 39.597656 -7.480469 C 41.796875 -15.398438 42.414062 -18.128906 39.597656 -18.128906 C 35.109375 -18.128906 34.671875 -5.28125 20.238281 -4.3125 C 18.917969 -4.222656 18.039062 -5.105469 18.039062 -6.421875 L 18.039062 -17.421875 C 18.039062 -18.832031 18.917969 -19.625 20.238281 -19.449219 C 28.160156 -18.390625 26.574219 -14.34375 29.917969 -14.34375 C 33.527344 -14.34375 32.03125 -19.449219 32.03125 -22.085938 C 32.03125 -24.726562 33.527344 -29.832031 29.917969 -29.832031 C 26.574219 -29.832031 28.160156 -25.605469 20.238281 -24.550781 C 18.917969 -24.375 18.039062 -25.167969 18.039062 -26.574219 L 18.039062 -37.222656 C 18.039062 -38.542969 18.917969 -39.421875 20.238281 -39.335938 C 33.792969 -38.453125 34.054688 -29.128906 37.925781 -29.128906 C 41.796875 -29.128906 39.246094 -34.671875 36.605469 -41.007812 C 35.199219 -44.4375 33.792969 -44.4375 29.917969 -44.527344 C 26.222656 -44.613281 20.765625 -44 13.199219 -44 C 11.96875 -44 10.734375 -44 9.328125 -44 C 7.566406 -44 5.367188 -44.527344 3.609375 -44.527344 C 2.023438 -44.527344 0.878906 -44.085938 0.878906 -42.238281 Z M 0.878906 -42.238281 "/></g></g></g><g fill="#000000" fill-opacity="1"><g transform="translate(176.805571, 199.147391)"><g><path d="M 0.441406 -42.328125 C 0.441406 -39.421875 3.609375 -39.597656 8.449219 -33.792969 C 11.441406 -30.183594 14.429688 -25.785156 16.894531 -21.824219 C 17.597656 -20.679688 17.6875 -19.183594 16.894531 -18.128906 C 14.519531 -14.960938 12.40625 -11.792969 10.472656 -9.414062 C 5.191406 -3.960938 0.96875 -4.574219 0.96875 -1.671875 C 0.96875 0.0898438 2.289062 0.527344 4.046875 0.527344 C 5.894531 0.527344 8.273438 0 10.03125 0 C 11.792969 0 14.253906 0.527344 16.105469 0.527344 C 17.953125 0.527344 19.269531 0.0898438 19.269531 -1.671875 C 19.269531 -4.222656 15.136719 -3.785156 16.191406 -7.039062 C 16.542969 -8.273438 19.886719 -14.167969 21.121094 -14.167969 C 22.4375 -14.167969 25.519531 -8.183594 25.785156 -6.953125 C 26.664062 -3.609375 22.703125 -4.136719 22.703125 -1.582031 C 22.703125 0.0898438 24.726562 0.527344 27.191406 0.527344 C 30.007812 0.527344 33.351562 0 35.199219 0 C 38.277344 0 41.535156 0.703125 44.613281 0.703125 C 46.992188 0.703125 48.488281 0.265625 48.488281 -1.496094 C 48.488281 -3.257812 46.726562 -3.609375 44.964844 -5.191406 C 42.0625 -7.742188 35.550781 -16.71875 32.296875 -21.558594 C 31.589844 -22.617188 31.679688 -24.109375 32.382812 -25.253906 C 34.496094 -28.6875 36.695312 -32.207031 38.632812 -34.582031 C 43.910156 -40.039062 48.132812 -39.421875 48.132812 -42.328125 C 48.132812 -44.085938 46.816406 -44.527344 45.054688 -44.527344 C 43.207031 -44.527344 40.832031 -44 39.070312 -44 C 37.3125 -44 34.847656 -44.527344 33 -44.527344 C 31.152344 -44.527344 29.832031 -44.085938 29.832031 -42.328125 C 29.832031 -39.773438 34.144531 -40.214844 32.910156 -36.957031 C 32.472656 -35.726562 29.304688 -30.09375 27.894531 -30.09375 C 27.542969 -30.09375 27.101562 -30.359375 26.75 -30.976562 C 25.167969 -33.527344 23.582031 -35.640625 23.144531 -36.871094 C 22.175781 -40.214844 26.222656 -39.6875 26.222656 -42.238281 C 26.222656 -44.175781 24.199219 -44.613281 21.734375 -44.613281 C 18.917969 -44.613281 15.574219 -44 13.726562 -44 C 10.648438 -44 7.390625 -44.527344 4.3125 -44.527344 C 1.9375 -44.527344 0.441406 -44.085938 0.441406 -42.328125 Z M 0.441406 -42.328125 "/></g></g></g><g fill="#000000" fill-opacity="1"><g transform="translate(180.107146, 231.397389)"><g/></g></g><g fill="#000000" fill-opacity="1"><g transform="translate(180.107146, 262.897387)"><g/></g></g><g fill="#000000" fill-opacity="1"><g transform="translate(316.355898, 120.752182)"><g><path d="M 0 8.929688 C 0 11.089844 -0.433594 15.335938 -0.433594 17.207031 C -0.433594 28.585938 6.191406 35.351562 18 35.351562 C 29.808594 35.351562 36.433594 28.585938 36.433594 17.207031 C 36.433594 15.335938 36 11.089844 36 8.929688 C 36 7.488281 36.433594 5.328125 36.433594 3.601562 C 36.433594 1.945312 36.070312 0.71875 34.632812 0.71875 C 32.542969 0.71875 33.480469 3.167969 26.710938 3.167969 L 9.289062 3.167969 C 2.519531 3.167969 3.457031 0.71875 1.367188 0.71875 C -0.0703125 0.71875 -0.433594 1.945312 -0.433594 3.601562 C -0.433594 5.328125 0 7.488281 0 8.929688 Z M 5.257812 14.832031 L 30.382812 14.832031 C 31.535156 14.832031 31.96875 15.550781 31.96875 16.632812 C 31.96875 21.960938 23.113281 23.113281 18 23.113281 C 12.601562 23.113281 3.671875 22.105469 3.671875 16.632812 C 3.671875 15.550781 4.105469 14.832031 5.257812 14.832031 Z M 5.257812 14.832031 "/></g></g></g><g fill="#000000" fill-opacity="1"><g transform="translate(316.355898, 145.448156)"><g><path d="M 34.558594 0.71875 C 32.472656 0.71875 33.191406 3.167969 26.710938 3.167969 L 9.289062 3.167969 C 2.519531 3.238281 3.457031 0.792969 1.367188 0.792969 C -0.0703125 0.792969 -0.433594 2.015625 -0.433594 3.671875 C -0.433594 5.398438 0 7.558594 0 9 C 0 13.609375 -0.0703125 19.585938 -0.433594 28.152344 C -0.574219 31.320312 2.304688 31.320312 6.121094 32.398438 C 12.601562 34.199219 14.832031 34.703125 14.832031 32.398438 C 14.832031 28.726562 4.320312 28.367188 3.527344 16.558594 C 3.457031 15.480469 4.175781 14.761719 5.257812 14.761719 L 14.257812 14.761719 C 15.40625 14.761719 16.054688 15.480469 15.910156 16.558594 C 15.046875 23.039062 11.734375 21.742188 11.734375 24.480469 C 11.734375 27.433594 15.910156 26.207031 18.070312 26.207031 C 20.230469 26.207031 24.40625 27.433594 24.40625 24.480469 C 24.40625 21.742188 20.953125 23.039062 20.089844 16.558594 C 19.945312 15.480469 20.59375 14.761719 21.742188 14.761719 L 30.457031 14.761719 C 31.535156 14.761719 32.257812 15.480469 32.183594 16.558594 C 31.464844 27.648438 23.832031 27.863281 23.832031 31.03125 C 23.832031 34.199219 28.367188 32.113281 33.550781 29.953125 C 36.359375 28.800781 36.359375 27.648438 36.433594 24.480469 C 36.503906 21.457031 36 16.992188 36 10.800781 C 36 9.792969 36 8.785156 36 7.632812 C 36 6.191406 36.433594 4.390625 36.433594 2.953125 C 36.433594 1.65625 36.070312 0.71875 34.558594 0.71875 Z M 34.558594 0.71875 "/></g></g></g><g fill="#000000" fill-opacity="1"><g transform="translate(316.355898, 167.984126)"><g><path d="M 34.34375 0.359375 C 32.398438 0.359375 31.96875 2.449219 30.601562 3.816406 C 27.503906 6.910156 18 11.375 13.609375 13.390625 L 9.289062 13.535156 C 2.519531 13.535156 3.457031 11.089844 1.367188 11.089844 C -0.0703125 11.089844 -0.433594 12.3125 -0.433594 13.96875 C -0.433594 15.695312 0 17.855469 0 19.296875 C 0 20.734375 -0.433594 22.894531 -0.433594 24.625 C -0.433594 26.28125 -0.0703125 27.503906 1.367188 27.503906 C 3.457031 27.503906 2.519531 25.054688 9.289062 25.054688 L 13.609375 25.054688 C 18 27 27.070312 31.105469 30.816406 34.558594 C 32.183594 35.785156 32.976562 38.015625 34.703125 38.015625 C 36.070312 38.015625 36.433594 37.007812 36.433594 35.785156 C 36.433594 34.34375 36 32.617188 36 31.464844 C 36 30.023438 36.359375 28.441406 36.359375 27.144531 C 36.359375 25.921875 36 25.054688 34.558594 25.054688 C 32.472656 25.054688 32.832031 28.441406 30.167969 27.574219 C 25.703125 25.992188 22.390625 24.40625 20.59375 23.617188 C 19.585938 23.183594 19.585938 22.824219 20.59375 22.390625 C 22.390625 21.601562 24.769531 20.519531 29.230469 18.9375 C 31.96875 18.144531 32.257812 21.167969 34.34375 21.167969 C 35.855469 21.167969 36.433594 20.304688 36.433594 17.929688 C 36.433594 15.695312 36 11.878906 36 10.078125 C 36 8.207031 36.433594 5.902344 36.433594 3.671875 C 36.433594 1.222656 35.855469 0.359375 34.34375 0.359375 Z M 34.34375 0.359375 "/></g></g></g><g fill="#000000" fill-opacity="1"><g transform="translate(316.355898, 194.264101)"><g><path d="M 34.632812 0.71875 C 32.542969 0.71875 33.480469 3.167969 26.710938 3.167969 L 14.113281 3.167969 C 3.816406 3.167969 -0.433594 8.785156 -0.433594 19.152344 C -0.433594 29.664062 3.886719 34.992188 14.113281 34.992188 L 26.785156 34.992188 C 33.550781 34.992188 32.617188 37.441406 34.703125 37.441406 C 36.144531 37.441406 36.503906 36.144531 36.503906 34.558594 C 36.503906 32.761719 36.070312 30.601562 36.070312 29.160156 C 36.070312 27.71875 36.503906 25.558594 36.503906 23.832031 C 36.503906 22.175781 36.144531 20.953125 34.703125 20.953125 C 32.617188 20.953125 33.550781 23.398438 26.785156 23.398438 L 12.671875 23.398438 C 9.070312 23.398438 4.246094 23.039062 4.246094 19.078125 C 4.246094 15.121094 9.070312 14.761719 12.671875 14.761719 L 26.785156 14.761719 C 33.480469 14.761719 32.542969 17.207031 34.632812 17.207031 C 36.070312 17.207031 36.433594 15.910156 36.433594 14.328125 C 36.433594 12.527344 36 10.367188 36 8.929688 C 36 7.488281 36.433594 5.328125 36.433594 3.601562 C 36.433594 1.945312 36.070312 0.71875 34.632812 0.71875 Z M 34.632812 0.71875 "/></g></g></g><g fill="#000000" fill-opacity="1"><g transform="translate(316.355898, 220.328065)"><g><path d="M 7.128906 1.945312 C 3.023438 1.871094 -0.433594 0.503906 -0.433594 3.382812 C -0.433594 5.398438 0 5.976562 0 8.425781 C 0 12.097656 -0.433594 14.039062 -0.433594 17.710938 C -0.433594 25.128906 3.167969 32.472656 10.078125 32.472656 C 23.183594 32.472656 21.671875 13.246094 28.296875 13.246094 C 30.671875 13.246094 32.257812 14.6875 32.257812 17.425781 C 32.257812 23.039062 23.832031 24.839844 23.832031 28.152344 C 23.832031 32.398438 28.078125 30.382812 35.351562 27.144531 C 36.214844 26.785156 36.433594 26.207031 36.433594 25.488281 C 36.433594 24.550781 36 23.257812 36 21.601562 C 36 19.441406 36.433594 18.070312 36.433594 15.265625 C 36.433594 6.335938 31.824219 1.800781 25.703125 1.800781 C 12.382812 1.800781 12.527344 21.960938 6.910156 22.03125 C 4.753906 22.03125 4.105469 20.375 4.105469 18.070312 C 4.105469 8.136719 14.472656 5.6875 14.472656 2.878906 C 14.472656 0.289062 11.519531 1.945312 7.128906 1.945312 Z M 7.128906 1.945312 "/></g></g></g><g fill="#000000" fill-opacity="1"><g transform="translate(278.855899, 156.213117)"><g><path d="M 34.558594 0.71875 C 32.472656 0.71875 33.191406 3.167969 26.710938 3.167969 L 9.289062 3.167969 C 2.519531 3.238281 3.457031 0.792969 1.367188 0.792969 C -0.0703125 0.792969 -0.433594 2.015625 -0.433594 3.671875 C -0.433594 5.398438 0 7.558594 0 9 C 0 13.609375 -0.0703125 19.585938 -0.433594 28.152344 C -0.574219 31.320312 2.304688 31.320312 6.121094 32.398438 C 12.601562 34.199219 14.832031 34.703125 14.832031 32.398438 C 14.832031 28.726562 4.320312 28.367188 3.527344 16.558594 C 3.457031 15.480469 4.175781 14.761719 5.257812 14.761719 L 14.257812 14.761719 C 15.40625 14.761719 16.054688 15.480469 15.910156 16.558594 C 15.046875 23.039062 11.734375 21.742188 11.734375 24.480469 C 11.734375 27.433594 15.910156 26.207031 18.070312 26.207031 C 20.230469 26.207031 24.40625 27.433594 24.40625 24.480469 C 24.40625 21.742188 20.953125 23.039062 20.089844 16.558594 C 19.945312 15.480469 20.59375 14.761719 21.742188 14.761719 L 30.457031 14.761719 C 31.535156 14.761719 32.257812 15.480469 32.183594 16.558594 C 31.464844 27.648438 23.832031 27.863281 23.832031 31.03125 C 23.832031 34.199219 28.367188 32.113281 33.550781 29.953125 C 36.359375 28.800781 36.359375 27.648438 36.433594 24.480469 C 36.503906 21.457031 36 16.992188 36 10.800781 C 36 9.792969 36 8.785156 36 7.632812 C 36 6.191406 36.433594 4.390625 36.433594 2.953125 C 36.433594 1.65625 36.070312 0.71875 34.558594 0.71875 Z M 34.558594 0.71875 "/></g></g></g><g fill="#000000" fill-opacity="1"><g transform="translate(278.855899, 178.749087)"><g><path d="M 34.632812 0.359375 C 32.257812 0.359375 32.398438 2.953125 27.648438 6.910156 C 24.695312 9.359375 21.097656 11.808594 17.855469 13.824219 C 16.921875 14.398438 15.695312 14.472656 14.832031 13.824219 C 12.238281 11.878906 9.648438 10.152344 7.703125 8.566406 C 3.238281 4.246094 3.742188 0.792969 1.367188 0.792969 C -0.0703125 0.792969 -0.433594 1.871094 -0.433594 3.3125 C -0.433594 4.824219 0 6.769531 0 8.207031 C 0 9.648438 -0.433594 11.664062 -0.433594 13.175781 C -0.433594 14.6875 -0.0703125 15.769531 1.367188 15.769531 C 3.457031 15.769531 3.097656 12.382812 5.761719 13.246094 C 6.769531 13.535156 11.59375 16.273438 11.59375 17.28125 C 11.59375 18.359375 6.695312 20.878906 5.6875 21.097656 C 2.953125 21.816406 3.382812 18.574219 1.296875 18.574219 C -0.0703125 18.574219 -0.433594 20.230469 -0.433594 22.246094 C -0.433594 24.550781 0 27.289062 0 28.800781 C 0 31.320312 -0.574219 33.984375 -0.574219 36.503906 C -0.574219 38.449219 -0.214844 39.671875 1.222656 39.671875 C 2.664062 39.671875 2.953125 38.230469 4.246094 36.792969 C 6.335938 34.414062 13.679688 29.089844 17.640625 26.425781 C 18.503906 25.847656 19.726562 25.921875 20.664062 26.496094 C 23.472656 28.222656 26.351562 30.023438 28.296875 31.609375 C 32.761719 35.929688 32.257812 39.382812 34.632812 39.382812 C 36.070312 39.382812 36.433594 38.304688 36.433594 36.863281 C 36.433594 35.351562 36 33.40625 36 31.96875 C 36 30.527344 36.433594 28.511719 36.433594 27 C 36.433594 25.488281 36.070312 24.40625 34.632812 24.40625 C 32.542969 24.40625 32.902344 27.9375 30.238281 26.929688 C 29.230469 26.566406 24.625 23.976562 24.625 22.824219 C 24.625 22.535156 24.839844 22.175781 25.34375 21.886719 C 27.433594 20.59375 29.160156 19.296875 30.167969 18.9375 C 32.902344 18.144531 32.472656 21.457031 34.558594 21.457031 C 36.144531 21.457031 36.503906 19.800781 36.503906 17.785156 C 36.503906 15.480469 36 12.742188 36 11.230469 C 36 8.710938 36.433594 6.046875 36.433594 3.527344 C 36.433594 1.585938 36.070312 0.359375 34.632812 0.359375 Z M 34.632812 0.359375 "/></g></g></g><g fill="#000000" fill-opacity="1"><g transform="translate(248.855909, 181.44359)"><g/></g></g><g fill="#000000" fill-opacity="1"><g transform="translate(219.605911, 181.44359)"><g/></g></g></svg>